<svg height="358" width="800.000369" xmlns="http://www.w3.org/2000/svg"><path d="m100.17951-.02539063c-51.456969.05181816-94.5062499 39.00941063-99.5886071 90.12304663h-.5909029v267.902344h200.35906 199.12245 200.1595.0997 200.25927v-119.75391h-.18003c-.97833 51.40826-46.68026 94.86452-99.99951 94.89063-53.28976-.0666-97.20047-41.7658-99.9232-94.89063h-.15652-.0665c.028-.62478.0502 56.36633.0665-1.875-1.42332-55.21015-44.85192-100.00002-100.17955-100-55.32762 0-100.17951 44.77153-100.17951 100 .0254.62528.0567 1.25031.0939 1.875h-.17413c-.10536 53.15419-46.68023 94.86449-99.99947 94.89063-49.7573-.1118-98.00231-36.66115-98.94294-85.82813v-157.210934h-.49503c-5.08601-51.150082-48.19081-90.1203961-99.6845-90.12304663z" fill="#131622" stroke-width="1.026236"/></svg>